<mxfile host="app.diagrams.net" modified="2024-06-03T03:25:36.995Z" agent="Mozilla/5.0 (X11; Ubuntu; Linux x86_64; rv:126.0) Gecko/20100101 Firefox/126.0" etag="7v5JSQK3zxZmGnQdTb3n" version="24.4.13" type="device">
  <diagram name="Page-1" id="L0-ZPoFgoB3z7o1013aI">
    <mxGraphModel dx="810" dy="483" grid="1" gridSize="10" guides="1" tooltips="1" connect="1" arrows="1" fold="1" page="1" pageScale="1" pageWidth="850" pageHeight="1100" math="0" shadow="0">
      <root>
        <mxCell id="0" />
        <mxCell id="1" parent="0" />
        <mxCell id="ET92SHPKvtpUbfVpGWj1-1" value="Add Item" style="ellipse;whiteSpace=wrap;html=1;" parent="1" vertex="1">
          <mxGeometry x="200" y="10" width="140" height="70" as="geometry" />
        </mxCell>
        <mxCell id="ET92SHPKvtpUbfVpGWj1-2" value="Admin" style="shape=umlActor;html=1;verticalLabelPosition=bottom;verticalAlign=top;align=center;" parent="1" vertex="1">
          <mxGeometry x="70" y="225" width="30" height="65" as="geometry" />
        </mxCell>
        <mxCell id="ET92SHPKvtpUbfVpGWj1-3" value="Update Item" style="ellipse;whiteSpace=wrap;html=1;" parent="1" vertex="1">
          <mxGeometry x="200" y="120" width="140" height="70" as="geometry" />
        </mxCell>
        <mxCell id="ET92SHPKvtpUbfVpGWj1-4" value="Delete Item" style="ellipse;whiteSpace=wrap;html=1;" parent="1" vertex="1">
          <mxGeometry x="200" y="240" width="140" height="70" as="geometry" />
        </mxCell>
        <mxCell id="ET92SHPKvtpUbfVpGWj1-5" value="Edit Price" style="ellipse;whiteSpace=wrap;html=1;" parent="1" vertex="1">
          <mxGeometry x="200" y="350" width="140" height="70" as="geometry" />
        </mxCell>
        <mxCell id="ET92SHPKvtpUbfVpGWj1-6" value="Edit Availability" style="ellipse;whiteSpace=wrap;html=1;" parent="1" vertex="1">
          <mxGeometry x="200" y="460" width="140" height="70" as="geometry" />
        </mxCell>
        <mxCell id="ET92SHPKvtpUbfVpGWj1-7" value="Login" style="ellipse;whiteSpace=wrap;html=1;" parent="1" vertex="1">
          <mxGeometry x="400" y="240" width="140" height="70" as="geometry" />
        </mxCell>
        <mxCell id="ET92SHPKvtpUbfVpGWj1-8" value="Chef" style="shape=umlActor;html=1;verticalLabelPosition=bottom;verticalAlign=top;align=center;" parent="1" vertex="1">
          <mxGeometry x="790" y="60" width="30" height="60" as="geometry" />
        </mxCell>
        <mxCell id="ET92SHPKvtpUbfVpGWj1-9" value="Roll Out Menu" style="ellipse;whiteSpace=wrap;html=1;" parent="1" vertex="1">
          <mxGeometry x="590" y="10" width="140" height="70" as="geometry" />
        </mxCell>
        <mxCell id="ET92SHPKvtpUbfVpGWj1-12" value="Give feedback" style="ellipse;whiteSpace=wrap;html=1;" parent="1" vertex="1">
          <mxGeometry x="600" y="240" width="140" height="70" as="geometry" />
        </mxCell>
        <mxCell id="ET92SHPKvtpUbfVpGWj1-13" value="Generate monthly report" style="ellipse;whiteSpace=wrap;html=1;" parent="1" vertex="1">
          <mxGeometry x="600" y="120" width="140" height="70" as="geometry" />
        </mxCell>
        <mxCell id="ET92SHPKvtpUbfVpGWj1-15" value="&amp;lt;&amp;lt;include&amp;gt;&amp;gt;" style="edgeStyle=none;html=1;endArrow=open;verticalAlign=bottom;dashed=1;labelBackgroundColor=none;rounded=0;entryX=0.5;entryY=0;entryDx=0;entryDy=0;" parent="1" target="ET92SHPKvtpUbfVpGWj1-7" edge="1">
          <mxGeometry width="160" relative="1" as="geometry">
            <mxPoint x="340" y="40" as="sourcePoint" />
            <mxPoint x="500" y="40" as="targetPoint" />
            <Array as="points">
              <mxPoint x="470" y="40" />
            </Array>
          </mxGeometry>
        </mxCell>
        <mxCell id="ET92SHPKvtpUbfVpGWj1-16" value="&amp;lt;&amp;lt;include&amp;gt;&amp;gt;" style="edgeStyle=none;html=1;endArrow=open;verticalAlign=bottom;dashed=1;labelBackgroundColor=none;rounded=0;entryX=0.5;entryY=0;entryDx=0;entryDy=0;" parent="1" target="ET92SHPKvtpUbfVpGWj1-7" edge="1">
          <mxGeometry width="160" relative="1" as="geometry">
            <mxPoint x="330" y="160" as="sourcePoint" />
            <mxPoint x="460" y="230" as="targetPoint" />
            <Array as="points">
              <mxPoint x="430" y="160" />
            </Array>
          </mxGeometry>
        </mxCell>
        <mxCell id="ET92SHPKvtpUbfVpGWj1-17" value="&amp;lt;&amp;lt;include&amp;gt;&amp;gt;" style="edgeStyle=none;html=1;endArrow=open;verticalAlign=bottom;dashed=1;labelBackgroundColor=none;rounded=0;" parent="1" edge="1">
          <mxGeometry width="160" relative="1" as="geometry">
            <mxPoint x="340" y="280" as="sourcePoint" />
            <mxPoint x="400" y="280" as="targetPoint" />
          </mxGeometry>
        </mxCell>
        <mxCell id="ET92SHPKvtpUbfVpGWj1-18" value="&amp;lt;&amp;lt;include&amp;gt;&amp;gt;" style="edgeStyle=none;html=1;endArrow=open;verticalAlign=bottom;dashed=1;labelBackgroundColor=none;rounded=0;entryX=0.5;entryY=1;entryDx=0;entryDy=0;" parent="1" target="ET92SHPKvtpUbfVpGWj1-7" edge="1">
          <mxGeometry width="160" relative="1" as="geometry">
            <mxPoint x="330" y="390" as="sourcePoint" />
            <mxPoint x="490" y="390" as="targetPoint" />
            <Array as="points">
              <mxPoint x="430" y="390" />
            </Array>
          </mxGeometry>
        </mxCell>
        <mxCell id="ET92SHPKvtpUbfVpGWj1-19" value="&amp;lt;&amp;lt;include&amp;gt;&amp;gt;" style="edgeStyle=none;html=1;endArrow=open;verticalAlign=bottom;dashed=1;labelBackgroundColor=none;rounded=0;" parent="1" edge="1">
          <mxGeometry width="160" relative="1" as="geometry">
            <mxPoint x="340" y="490" as="sourcePoint" />
            <mxPoint x="470" y="320" as="targetPoint" />
            <Array as="points">
              <mxPoint x="470" y="490" />
            </Array>
          </mxGeometry>
        </mxCell>
        <mxCell id="ET92SHPKvtpUbfVpGWj1-20" value="&amp;lt;&amp;lt;include&amp;gt;&amp;gt;" style="edgeStyle=none;html=1;endArrow=open;verticalAlign=bottom;dashed=1;labelBackgroundColor=none;rounded=0;" parent="1" edge="1">
          <mxGeometry width="160" relative="1" as="geometry">
            <mxPoint x="590" y="44.5" as="sourcePoint" />
            <mxPoint x="470" y="240" as="targetPoint" />
            <Array as="points">
              <mxPoint x="500" y="40" />
            </Array>
          </mxGeometry>
        </mxCell>
        <mxCell id="ET92SHPKvtpUbfVpGWj1-21" value="&amp;lt;&amp;lt;include&amp;gt;&amp;gt;" style="edgeStyle=none;html=1;endArrow=open;verticalAlign=bottom;dashed=1;labelBackgroundColor=none;rounded=0;" parent="1" edge="1">
          <mxGeometry width="160" relative="1" as="geometry">
            <mxPoint x="600" y="154.5" as="sourcePoint" />
            <mxPoint x="470" y="240" as="targetPoint" />
            <Array as="points">
              <mxPoint x="520" y="155" />
            </Array>
          </mxGeometry>
        </mxCell>
        <mxCell id="ET92SHPKvtpUbfVpGWj1-22" value="&amp;lt;&amp;lt;include&amp;gt;&amp;gt;" style="edgeStyle=none;html=1;endArrow=open;verticalAlign=bottom;dashed=1;labelBackgroundColor=none;rounded=0;entryX=1;entryY=0.5;entryDx=0;entryDy=0;exitX=0;exitY=0.5;exitDx=0;exitDy=0;" parent="1" source="ET92SHPKvtpUbfVpGWj1-12" target="ET92SHPKvtpUbfVpGWj1-7" edge="1">
          <mxGeometry width="160" relative="1" as="geometry">
            <mxPoint x="610" y="274.5" as="sourcePoint" />
            <mxPoint x="450" y="274.5" as="targetPoint" />
          </mxGeometry>
        </mxCell>
        <mxCell id="ET92SHPKvtpUbfVpGWj1-23" value="&amp;lt;&amp;lt;include&amp;gt;&amp;gt;" style="edgeStyle=none;html=1;endArrow=open;verticalAlign=bottom;dashed=1;labelBackgroundColor=none;rounded=0;" parent="1" edge="1">
          <mxGeometry width="160" relative="1" as="geometry">
            <mxPoint x="600" y="384.5" as="sourcePoint" />
            <mxPoint x="470" y="310" as="targetPoint" />
            <Array as="points">
              <mxPoint x="500" y="385" />
            </Array>
          </mxGeometry>
        </mxCell>
        <mxCell id="ET92SHPKvtpUbfVpGWj1-24" value="Use" style="endArrow=open;endSize=12;dashed=1;html=1;rounded=0;entryX=0;entryY=0.5;entryDx=0;entryDy=0;" parent="1" target="ET92SHPKvtpUbfVpGWj1-1" edge="1">
          <mxGeometry width="160" relative="1" as="geometry">
            <mxPoint x="90" y="260" as="sourcePoint" />
            <mxPoint x="250" y="260" as="targetPoint" />
          </mxGeometry>
        </mxCell>
        <mxCell id="ET92SHPKvtpUbfVpGWj1-25" value="Use" style="endArrow=open;endSize=12;dashed=1;html=1;rounded=0;" parent="1" edge="1">
          <mxGeometry width="160" relative="1" as="geometry">
            <mxPoint x="340" y="300" as="sourcePoint" />
            <mxPoint x="500" y="300" as="targetPoint" />
          </mxGeometry>
        </mxCell>
        <mxCell id="ET92SHPKvtpUbfVpGWj1-26" value="Use" style="endArrow=open;endSize=12;dashed=1;html=1;rounded=0;entryX=0;entryY=0.5;entryDx=0;entryDy=0;" parent="1" target="ET92SHPKvtpUbfVpGWj1-3" edge="1">
          <mxGeometry width="160" relative="1" as="geometry">
            <mxPoint x="90" y="260" as="sourcePoint" />
            <mxPoint x="250" y="260" as="targetPoint" />
          </mxGeometry>
        </mxCell>
        <mxCell id="ET92SHPKvtpUbfVpGWj1-27" value="Use" style="endArrow=open;endSize=12;dashed=1;html=1;rounded=0;entryX=0;entryY=0.5;entryDx=0;entryDy=0;" parent="1" target="ET92SHPKvtpUbfVpGWj1-4" edge="1">
          <mxGeometry width="160" relative="1" as="geometry">
            <mxPoint x="90" y="260" as="sourcePoint" />
            <mxPoint x="250" y="260" as="targetPoint" />
          </mxGeometry>
        </mxCell>
        <mxCell id="ET92SHPKvtpUbfVpGWj1-28" value="Use" style="endArrow=open;endSize=12;dashed=1;html=1;rounded=0;entryX=0;entryY=0.5;entryDx=0;entryDy=0;" parent="1" target="ET92SHPKvtpUbfVpGWj1-5" edge="1">
          <mxGeometry width="160" relative="1" as="geometry">
            <mxPoint x="90" y="260" as="sourcePoint" />
            <mxPoint x="250" y="260" as="targetPoint" />
          </mxGeometry>
        </mxCell>
        <mxCell id="ET92SHPKvtpUbfVpGWj1-29" value="Use" style="endArrow=open;endSize=12;dashed=1;html=1;rounded=0;entryX=0;entryY=0.5;entryDx=0;entryDy=0;" parent="1" target="ET92SHPKvtpUbfVpGWj1-6" edge="1">
          <mxGeometry width="160" relative="1" as="geometry">
            <mxPoint x="90" y="260" as="sourcePoint" />
            <mxPoint x="250" y="260" as="targetPoint" />
          </mxGeometry>
        </mxCell>
        <mxCell id="ET92SHPKvtpUbfVpGWj1-32" value="Use" style="endArrow=open;endSize=12;dashed=1;html=1;rounded=0;exitX=0.5;exitY=0.5;exitDx=0;exitDy=0;exitPerimeter=0;entryX=1;entryY=0.5;entryDx=0;entryDy=0;" parent="1" source="ET92SHPKvtpUbfVpGWj1-37" target="ET92SHPKvtpUbfVpGWj1-12" edge="1">
          <mxGeometry width="160" relative="1" as="geometry">
            <mxPoint x="760" y="330" as="sourcePoint" />
            <mxPoint x="600" y="330" as="targetPoint" />
          </mxGeometry>
        </mxCell>
        <mxCell id="ET92SHPKvtpUbfVpGWj1-33" value="Use" style="endArrow=open;endSize=12;dashed=1;html=1;rounded=0;exitX=0.5;exitY=0.65;exitDx=0;exitDy=0;exitPerimeter=0;entryX=1;entryY=0.5;entryDx=0;entryDy=0;" parent="1" source="ET92SHPKvtpUbfVpGWj1-37" target="ET92SHPKvtpUbfVpGWj1-36" edge="1">
          <mxGeometry width="160" relative="1" as="geometry">
            <mxPoint x="750" y="530" as="sourcePoint" />
            <mxPoint x="590" y="530" as="targetPoint" />
          </mxGeometry>
        </mxCell>
        <mxCell id="ET92SHPKvtpUbfVpGWj1-34" value="Use" style="endArrow=open;endSize=12;dashed=1;html=1;rounded=0;entryX=1;entryY=0.5;entryDx=0;entryDy=0;" parent="1" target="ET92SHPKvtpUbfVpGWj1-13" edge="1">
          <mxGeometry width="160" relative="1" as="geometry">
            <mxPoint x="790" y="90" as="sourcePoint" />
            <mxPoint x="640" y="270" as="targetPoint" />
          </mxGeometry>
        </mxCell>
        <mxCell id="ET92SHPKvtpUbfVpGWj1-35" value="Use" style="endArrow=open;endSize=12;dashed=1;html=1;rounded=0;entryX=0.9;entryY=0.857;entryDx=0;entryDy=0;entryPerimeter=0;" parent="1" source="ET92SHPKvtpUbfVpGWj1-8" target="ET92SHPKvtpUbfVpGWj1-9" edge="1">
          <mxGeometry width="160" relative="1" as="geometry">
            <mxPoint x="797.06" y="267.5" as="sourcePoint" />
            <mxPoint x="740" y="60" as="targetPoint" />
          </mxGeometry>
        </mxCell>
        <mxCell id="ET92SHPKvtpUbfVpGWj1-36" value="Choose item from rolled out menu" style="ellipse;whiteSpace=wrap;html=1;" parent="1" vertex="1">
          <mxGeometry x="600" y="350" width="140" height="70" as="geometry" />
        </mxCell>
        <mxCell id="ET92SHPKvtpUbfVpGWj1-37" value="Chef" style="shape=umlActor;html=1;verticalLabelPosition=bottom;verticalAlign=top;align=center;" parent="1" vertex="1">
          <mxGeometry x="790" y="280" width="30" height="60" as="geometry" />
        </mxCell>
      </root>
    </mxGraphModel>
  </diagram>
</mxfile>
